<svg xmlns="http://www.w3.org/2000/svg" width="73" height="73" fill="none"><path fill="#fff" d="M36.386.228c.03.03.06.074.105.09 3.417.944 4.96 2.967 4.96 6.504 0 2.382-.014 4.78.016 7.163 0 .495-.135.63-.63.63-1.783 0-1.783.015-1.783-1.724V6.432c0-2.308-1.514-3.807-3.837-3.822-.554 0-1.124.015-1.678 0-.375-.015-.48.135-.48.495 0 .51.015 1.034-.09 1.544-.345 1.573-1.738 2.742-3.372 2.742-5.665.03-11.33.03-16.995 0-1.978 0-3.447-1.543-3.492-3.567-.03-1.214-.03-1.214-1.228-1.199-.66 0-1.304-.06-1.964.09-1.618.39-2.757 1.739-2.817 3.417-.015.21 0 .42 0 .63v58.852c0 2.742 1.409 4.151 4.136 4.151h27.74c2.653 0 4.092-1.424 4.092-4.061 0-8.782.015-17.55-.015-26.332 0-.644.164-.824.809-.794 1.604.045 1.604.015 1.604 1.604v25.492c0 4.001-2.488 6.489-6.475 6.489H7.327c-3.537 0-5.56-1.544-6.52-4.96-.014-.046-.059-.076-.089-.105V5.293c.39-1.379.974-2.638 2.083-3.612C3.671.931 4.72.587 5.768.228h30.618ZM21.145 2.625h-9.037c-.21 0-.51-.15-.6.27-.284 1.394.285 2.113 1.694 2.113h15.78c1.35 0 1.664-.344 1.694-1.708.015-.54-.12-.72-.69-.705-2.952.045-5.889.03-8.841.03Z"/><path fill="#fff" d="M45.063 36.195c-8.947 0-17.879 0-26.826.015-.629 0-.764-.165-.764-.779.03-5.905.015-11.794 0-17.7 0-.584.165-.748.75-.748 17.908.014 35.802.014 53.711 0 .615 0 .72.194.72.749-.015 5.92-.015 11.84 0 17.759 0 .554-.135.69-.69.69-8.977 0-17.939.014-26.9.014Zm.015-2.398c8.153 0 16.29 0 24.444.016.584 0 .734-.135.734-.735a927.15 927.15 0 0 1 0-12.918c0-.645-.195-.765-.794-.765-16.276.015-32.536.015-48.812 0-.614 0-.794.15-.779.78.03 4.256.03 8.527 0 12.783 0 .66.135.87.84.855 8.122-.03 16.245-.016 24.367-.016ZM21.07 57.776c4.945 0 9.876.015 14.822-.015.569 0 .824.075.794.75-.06 1.663-.015 1.663-1.694 1.663-9.546 0-19.092-.015-28.639.015-.72 0-.9-.195-.87-.9.046-1.513 0-1.513 1.544-1.513H21.07Zm-.015 10.76a3.579 3.579 0 0 1-3.567-3.582c0-1.993 1.634-3.626 3.612-3.611 1.948.015 3.567 1.633 3.567 3.596.03 1.994-1.604 3.612-3.612 3.597Zm1.214-3.582c0-.644-.57-1.198-1.214-1.183-.66.015-1.169.57-1.154 1.243.015.645.51 1.14 1.169 1.14.674-.016 1.214-.54 1.199-1.2Z"/><path fill="#fff" d="M41.482 26.604c.719.42 1.333.794 1.963 1.139.3.165.315.3.15.6-.9 1.753-.884 1.753-2.578.779-.21-.12-.435-.24-.764-.405 0 .794-.015 1.484 0 2.188.015.405-.15.51-.525.51-1.873.06-1.873.06-1.873-1.829v-.494c0-.345-.15-.33-.39-.195-.524.315-1.064.6-1.573.914-.255.165-.435.195-.6-.12-.24-.48-.524-.944-.81-1.394-.179-.27-.074-.404.166-.54.63-.344 1.244-.719 1.993-1.153-.704-.405-1.319-.78-1.933-1.11-.315-.164-.36-.314-.195-.643.899-1.709.884-1.709 2.547-.765.78.45.78.45.78-.45v-.074c0-1.919 0-1.919 1.963-1.754.33.03.45.135.45.465-.015.51.015 1.034-.015 1.543-.03.51.075.72.6.375.404-.27.853-.48 1.258-.75.33-.224.525-.224.764.18.96 1.62.974 1.604-.63 2.533-.194.12-.404.255-.748.45Zm12.004 0c.66.39 1.259.764 1.873 1.079.33.18.48.315.225.674-.36.51-.51 1.394-1.019 1.514-.435.105-1.034-.495-1.574-.794-.194-.105-.404-.225-.734-.405 0 .764-.015 1.454 0 2.143.015.39-.06.57-.524.585-1.874.045-1.874.06-1.874-1.829v-.824c-.72.24-1.274.66-1.873 1.004-.345.195-.555.255-.75-.165-.254-.54-.854-1.109-.779-1.588.075-.495.944-.645 1.439-.975.21-.134.435-.254.734-.45-.644-.374-1.214-.748-1.798-1.048-.42-.21-.57-.405-.24-.84.345-.464.45-1.273.944-1.408.495-.135 1.004.48 1.514.75.225.12.45.239.794.434 0-.78.03-1.469-.015-2.143-.015-.435.15-.54.555-.555 1.843-.03 1.843-.045 1.843 1.799v.854c.69-.24 1.244-.63 1.814-.974.404-.255.629-.255.854.21.24.524.824 1.079.734 1.513-.09.48-.914.63-1.394.944-.21.18-.45.315-.749.495Zm-24.009 0c.69.405 1.274.75 1.859 1.064.345.18.51.36.24.75-.345.494-.54 1.303-.99 1.468-.464.165-1.034-.495-1.558-.764-.225-.105-.405-.315-.764-.315 0 .674-.03 1.349.015 2.008.015.435-.09.6-.57.614-1.828.016-1.828.03-1.828-1.813v-.84c-.705.256-1.274.66-1.859 1.005-.344.195-.54.27-.749-.165-.255-.554-.87-1.109-.794-1.588.075-.495.944-.645 1.438-.974.21-.135.435-.27.75-.465-.69-.405-1.304-.764-1.919-1.11-.3-.164-.39-.284-.21-.629.93-1.723.915-1.723 2.608-.749.195.12.405.225.735.39 0-.78.015-1.469 0-2.158-.015-.39.12-.51.524-.54 1.889-.075 1.889-.09 1.889 1.814 0 .134.014.284 0 .42-.03.419.15.419.45.239.494-.3 1.018-.57 1.513-.884.314-.21.494-.135.644.18.21.42.435.824.705 1.213.254.375.134.555-.225.75-.63.315-1.2.674-1.904 1.079Zm35.983 0c.63.375 1.199.734 1.799 1.034.42.21.554.42.24.84-.345.464-.465 1.273-.945 1.408-.48.135-.989-.495-1.514-.75-.24-.12-.45-.33-.824-.344 0 .704-.015 1.394 0 2.098.015.39-.105.51-.51.524-1.888.06-1.888.075-1.888-1.813v-.9c-.689.39-1.319.735-1.933 1.11-.3.18-.465.195-.644-.15-.285-.57-.885-1.139-.825-1.648.06-.465.945-.645 1.454-.96.21-.134.435-.27.734-.45-.689-.404-1.288-.779-1.918-1.108-.315-.165-.36-.315-.18-.645.93-1.708.914-1.723 2.608-.749.195.12.405.21.72.39 0-.765.03-1.424-.016-2.083-.03-.465.15-.585.6-.6 1.798-.03 1.798-.045 1.813 1.753 0 .27-.135.645.075.795.24.165.495-.18.734-.3.36-.18.705-.36 1.034-.6.42-.3.615-.164.84.24.869 1.544.884 1.53-.645 2.413-.24.15-.48.3-.809.495Z"/></svg>